<svg xmlns="http://www.w3.org/2000/svg" viewBox="0 0 44.78 28.85"><title>icon_Eye</title><g id="content"><path d="M44.55,16.66c-.09-.12-8.85-11.59-22.16-11.59S.31,16.54.23,16.66L0,17l.23.3c.09.12,8.85,11.59,22.16,11.59S44.46,17.37,44.55,17.26l.23-.3ZM11.7,17A10.69,10.69,0,1,1,22.39,27.64,10.7,10.7,0,0,1,11.7,17ZM1.26,17c1.2-1.47,6.86-7.87,15.28-10.1a11.66,11.66,0,0,0,0,20.21C8.12,24.83,2.47,18.42,1.26,17Zm27,10.1a11.66,11.66,0,0,0,0-20.21C36.65,9.09,42.31,15.49,43.51,17,42.31,18.42,36.65,24.82,28.23,27.06Z"/><rect x="20.53" y="15.1" width="3.72" height="3.72" transform="translate(-5.43 20.8) rotate(-45.01)"/><path d="M22.39,1c12.84,0,21.31,8.91,21.4,9l.73-.68C44.43,9.22,35.67,0,22.39,0S.35,9.22.26,9.32L1,10C1.07,9.91,9.53,1,22.39,1Z"/></g></svg>