<svg xmlns="http://www.w3.org/2000/svg" viewBox="0 0 63.74 63.74"><g><path d="M32.1,33.81c.81-1.52,1.66-3,2.42-4.56a7.57,7.57,0,0,1,1.33-2.31.44.44,0,0,0,0-.68,3.14,3.14,0,0,1-.48-.82c-.39-1-.75-2-1.12-3l-2.35-6.39a1.31,1.31,0,0,0-.2-.26c-.13.27-.24.48-.33.7-.21.5-.38,1-.61,1.5-.39.79-.84,1.55-1.23,2.33-.8,1.6-1.56,3.22-2.37,4.81-.92,1.81-1.88,3.6-2.81,5.4-.62,1.19-1.22,2.39-1.84,3.58a.58.58,0,0,0,.2.83A23.49,23.49,0,0,1,25,36.63a11.89,11.89,0,0,0,4.56,2.24c.63-1.3,1.25-2.59,1.88-3.88C31.66,34.59,31.89,34.21,32.1,33.81Z"/><path d="M0,0V63.74H63.74V0ZM48.49,28.46A11.17,11.17,0,0,1,46.68,34a13.15,13.15,0,0,1-2.57,2.69.68.68,0,0,0-.15,1c.37.56.71,1.13,1.06,1.7a1.89,1.89,0,0,1,.11.16c.64,1.3,1.29,2.6,1.9,3.92a.9.9,0,0,1-.37,1.17.86.86,0,0,1-1.22-.29A22.67,22.67,0,0,1,44.13,42,9.33,9.33,0,0,0,43,39.86a9.21,9.21,0,0,1-.75-1.29c-.92.5-1.81,1-2.67,1.46a12.67,12.67,0,0,1-4.87,1.67,18.3,18.3,0,0,1-3.44-.09.52.52,0,0,0-.63.37,30,30,0,0,1-2.26,4.71,18.88,18.88,0,0,0-1.19,2.37c.27,0,.5.08.73.1.92.07,1.85.11,2.77.21a2.17,2.17,0,0,1,.88.32.8.8,0,0,1,.32,1,.85.85,0,0,1-.89.6c-.49,0-1,0-1.48-.11-1.28-.15-2.57-.31-3.84-.5a.83.83,0,0,1-.73-1.09,14.69,14.69,0,0,1,.92-2.14c.77-1.56,1.57-3.1,2.35-4.66.25-.5.45-1,.69-1.53.14-.31.1-.53-.24-.65-.61-.22-1.23-.42-1.84-.67a7.54,7.54,0,0,1-1.42-.68c-1.18-.8-2.32-1.65-3.48-2.47-.47-.33-.64-.26-.94.3-.77,1.4-1.53,2.81-2.34,4.18-.51.86-1.11,1.68-1.67,2.51a1,1,0,0,1-1.27.31,1,1,0,0,1-.37-1.34,11.38,11.38,0,0,1,1-1.6,25.52,25.52,0,0,0,2.86-4.76c.28-.56.65-1.07.91-1.63.53-1.13,1-2.3,1.54-3.4.8-1.55,1.71-3,2.54-4.57.65-1.2,1.24-2.42,1.86-3.63.43-.84.86-1.68,1.28-2.52.64-1.29,1.29-2.57,1.91-3.87.5-1,1-2.12,1.46-3.17a3,3,0,0,1,.62-.9.93.93,0,0,1,1.54.44c.15.46.31.93.47,1.39.52,1.53,1,3.07,1.56,4.59s1.25,3.25,1.88,4.88a1.09,1.09,0,0,0,.13.2L42.27,15a4.83,4.83,0,0,0-.5,0c-.48,0-1,0-1.44,0a1,1,0,0,1-1-1,1,1,0,0,1,1-1c1.33,0,2.66,0,4,.07a.93.93,0,0,1,.79,1.43,13.54,13.54,0,0,1-.83,1.17c-.73,1.11-1.46,2.21-2.15,3.35-.9,1.48-1.78,3-2.61,4.47-.49.88-.86,1.82-1.3,2.73-.27.56-.57,1.11-.85,1.66-.4.81-.77,1.65-1.2,2.45-.83,1.53-1.68,3-2.53,4.57-.12.22-.26.44-.37.67l-1.58,3.22,0,.08c-.36.69-.33.75.42.86a9.55,9.55,0,0,0,5.54-.91A15.23,15.23,0,0,0,40,37.63c1-.68,1.84-1.52,2.75-2.29a5.76,5.76,0,0,1,.48-.47,6.86,6.86,0,0,0,2.57-3.33,11,11,0,0,0,.73-2.92,16,16,0,0,0-.3-5.2A3.15,3.15,0,0,0,45.39,22c-.66-.65-.83-1.14-.4-1.64s1.06-.4,1.73.14A4.24,4.24,0,0,1,48.2,23.3,19.82,19.82,0,0,1,48.49,28.46Z"/></g></svg>