<svg xmlns="http://www.w3.org/2000/svg" viewBox="0 0 20 20"><defs><style>.cls-1{fill:#fff;}</style></defs><g id="Calque_1" data-name="Calque 1"><path class="cls-1" d="M7.5,5.19H5.15c-.1,0-.12,0-.12.12Q5,7.19,5,9.06c0,.1,0,.12.12.12.77,0,1.53,0,2.29,0a.49.49,0,0,1,.48.23.15.15,0,0,1,0,.18l-1.42,2.7L5.07,15.05a.32.32,0,0,0,0,.14c0,.91,0,1.82,0,2.73,0,.07,0,.1.1.1H7.87A.15.15,0,0,0,8,18a1.89,1.89,0,0,0,.3-.35c.39-.72.78-1.45,1.14-2.18a1.26,1.26,0,0,1,.52-.58.49.49,0,0,1,.25-.07h4.67c.09,0,.12,0,.12-.12q0-1.88,0-3.76c0-.09,0-.12-.12-.12-.77,0-1.53,0-2.29,0a.48.48,0,0,1-.49-.23c0-.06-.05-.1,0-.16s.18-.33.26-.5l2.61-5a.28.28,0,0,0,0-.12C15,3.9,15,3,15,2.07,15,2,15,2,14.88,2H12.12A.12.12,0,0,0,12,2a1.72,1.72,0,0,0-.3.33c-.4.73-.79,1.46-1.16,2.21a1.24,1.24,0,0,1-.55.59.45.45,0,0,1-.19.06Z"/><path class="cls-1" d="M7.5,5.19H9.84A.45.45,0,0,0,10,5.13a1.24,1.24,0,0,0,.55-.59c.37-.74.76-1.48,1.16-2.21A1.72,1.72,0,0,1,12,2a.12.12,0,0,1,.08,0h2.76C15,2,15,2,15,2.07,15,3,15,3.9,15,4.82a.28.28,0,0,1,0,.12l-2.61,5c-.09.17-.17.34-.26.5s0,.1,0,.16a.48.48,0,0,0,.49.23c.76,0,1.53,0,2.29,0,.09,0,.12,0,.12.12q0,1.88,0,3.76c0,.09,0,.12-.12.12H10.19a.49.49,0,0,0-.25.07,1.26,1.26,0,0,0-.52.58c-.37.73-.75,1.46-1.14,2.18A1.89,1.89,0,0,1,8,18a.15.15,0,0,1-.1,0H5.13C5,18,5,18,5,17.92,5,17,5,16.11,5,15.2a.32.32,0,0,1,0-.14l1.45-2.78,1.42-2.7a.15.15,0,0,0,0-.18.49.49,0,0,0-.48-.23c-.76,0-1.53,0-2.29,0-.1,0-.12,0-.12-.12Q5,7.19,5,5.31c0-.1,0-.12.12-.12Z"/></g></svg>