<svg xmlns="http://www.w3.org/2000/svg" viewBox="0 0 20 20"><defs><style>.cls-1{fill:#fff;}</style></defs><g id="Calque_1" data-name="Calque 1"><path class="cls-1" d="M18,11.77a6.24,6.24,0,0,0-.44-2.46,3.49,3.49,0,0,0-1.41-1.68,4,4,0,0,0-2.1-.55,3.38,3.38,0,0,0-3,1.55l-.1.13c0-.07,0-.12,0-.16,0-.37,0-.74,0-1.11,0-.13,0-.17-.16-.17H7.55V17.64h3.3c.09,0,.11,0,.11-.12,0-.37,0-.74,0-1.11,0-1.59,0-3.19,0-4.78A1.92,1.92,0,0,1,12.71,9.8a1.56,1.56,0,0,1,1.67,1.07,4,4,0,0,1,.19,1.37q0,2.63,0,5.25c0,.12,0,.16.16.16H18V17.5Q18,14.64,18,11.77Z"/><path class="cls-1" d="M5.47,7.33H2.37c-.11,0-.16,0-.16.15q0,5,0,10c0,.13,0,.16.16.16H5.45c.18,0,.18,0,.18-.18v-10C5.64,7.36,5.6,7.33,5.47,7.33Z"/><path class="cls-1" d="M3.26,2.46a1.75,1.75,0,0,0-.95,2.68A1.89,1.89,0,0,0,4,5.92a4.09,4.09,0,0,0,.42-.05A1.67,1.67,0,0,0,5.8,4.6a1.68,1.68,0,0,0-.57-1.83A2,2,0,0,0,3.26,2.46Z"/></g></svg>