<svg xmlns="http://www.w3.org/2000/svg" viewBox="0 0 20 20"><defs><style>.cls-1{fill:#fff;}</style></defs><g id="Calque_1" data-name="Calque 1"><path class="cls-1" d="M17.5,13.08c-.19-.42-.44-.82-.67-1.22L15.6,9.71,14.24,7.34,13,5.22c-.27-.48-.54-1-.84-1.42a1.12,1.12,0,0,0-.87-.55c-.94,0-1.87,0-2.81,0H8.33s0,.07,0,.09l.62,1L9.9,6,11,7.82,12.19,10l1.19,2.1,1.33,2.33,1.19,2.12a1.47,1.47,0,0,0,.18.21l.1-.14,1.22-2.15A1.46,1.46,0,0,0,17.5,13.08Z"/><path class="cls-1" d="M12,13.9a.45.45,0,0,0-.46-.26l-7.57,0H2.5s-.12,0-.13,0a.21.21,0,0,0,0,.16L3,14.93c.24.4.45.82.72,1.2a1.34,1.34,0,0,0,1.1.64c2.83,0,5.65,0,8.48,0h.23a2.75,2.75,0,0,0-.12-.29C13,15.61,12.44,14.76,12,13.9Z"/><path class="cls-1" d="M3.82,11.5H7.05v0h3.22c.06,0,.16,0,.18-.06s0-.13,0-.19l-.63-1.08L8.27,7.48l-1-1.86c0-.06-.1-.15-.12-.14a.38.38,0,0,0-.19.14L5.63,7.87l-2,3.39a.22.22,0,0,0,0,.18S3.76,11.5,3.82,11.5Z"/></g></svg>