<svg xmlns="http://www.w3.org/2000/svg" viewBox="0 0 20 20"><defs><style>.cls-1{fill:#fff;}</style></defs><title>logo_twitter</title><g id="Calque_1" data-name="Calque 1"><path class="cls-1" d="M17.94,3.41A3.61,3.61,0,0,1,16.5,5.28a6.33,6.33,0,0,0,1.85-.49l0,0c-.13.17-.25.34-.38.51a6.72,6.72,0,0,1-1.2,1.15.24.24,0,0,0-.11.23A10,10,0,0,1,14,13.8,9.09,9.09,0,0,1,8.69,16.7a10,10,0,0,1-5.3-.47,8.28,8.28,0,0,1-1.76-.9,7.58,7.58,0,0,0,2.64-.24,7,7,0,0,0,2.39-1.21,3.53,3.53,0,0,1-3.22-2.41,3.67,3.67,0,0,0,1.5-.06A3.5,3.5,0,0,1,2.23,8a3.6,3.6,0,0,0,1.5.38,3.54,3.54,0,0,1-1.39-2.1,3.42,3.42,0,0,1,.38-2.49A9.9,9.9,0,0,0,9.84,7.4c0-.06,0-.1,0-.14A3.42,3.42,0,0,1,11,4a3.46,3.46,0,0,1,4.34-.12,4.24,4.24,0,0,1,.33.29.21.21,0,0,0,.23.06,7.06,7.06,0,0,0,1.91-.73Z"/></g></svg>