<svg xmlns="http://www.w3.org/2000/svg" viewBox="0 0 72.12 83.99"><g id="content"><path d="M47,25.42,58.54,5.59a10.51,10.51,0,0,0-1.07-.1c-1,0-2.08.09-3.11.05a2.15,2.15,0,0,1-2.15-2.1,2.12,2.12,0,0,1,2.06-2.08c2.87,0,5.75,0,8.61.15A2,2,0,0,1,64.59,4.6,29.19,29.19,0,0,1,62.8,7.13c-1.57,2.4-3.15,4.79-4.64,7.24-1.94,3.19-3.84,6.41-5.65,9.67-1,1.9-1.86,3.93-2.81,5.89-.59,1.21-1.24,2.39-1.84,3.6-.87,1.76-1.67,3.56-2.6,5.29-1.79,3.32-3.64,6.59-5.47,9.88-.27.48-.57.95-.81,1.44-1.14,2.32-2.27,4.65-3.41,7l-.1.18c-.79,1.5-.72,1.61.91,1.87a20.67,20.67,0,0,0,12-2,32.93,32.93,0,0,0,5.35-2.74c2.11-1.47,4-3.28,6-5a12.61,12.61,0,0,1,1-1,14.83,14.83,0,0,0,5.56-7.19A23.71,23.71,0,0,0,67.84,35a34.54,34.54,0,0,0-.64-11.25,6.82,6.82,0,0,0-1.92-3c-1.42-1.41-1.8-2.46-.88-3.55s2.28-.86,3.75.31a9.18,9.18,0,0,1,3.21,6A42.85,42.85,0,0,1,72,34.62a24.17,24.17,0,0,1-3.91,12,28.42,28.42,0,0,1-5.56,5.81,1.47,1.47,0,0,0-.33,2.24c.8,1.2,1.54,2.45,2.3,3.68.07.12.17.22.23.35,1.38,2.82,2.79,5.63,4.12,8.47A1.94,1.94,0,0,1,68,69.7a1.86,1.86,0,0,1-2.64-.63,49,49,0,0,1-2.84-5.27,20.15,20.15,0,0,0-2.47-4.53,19.94,19.94,0,0,1-1.61-2.79c-2,1.08-3.91,2.06-5.78,3.15a27.41,27.41,0,0,1-10.54,3.61,39.48,39.48,0,0,1-7.43-.2,1.13,1.13,0,0,0-1.37.81c-1.57,3.42-2.72,7-4.89,10.18a40.91,40.91,0,0,0-2.57,5.12c.58.08,1.07.17,1.57.21,2,.15,4,.24,6,.45a4.69,4.69,0,0,1,1.91.7,1.73,1.73,0,0,1,.69,2.19A1.83,1.83,0,0,1,34.14,84c-1.07,0-2.14-.1-3.21-.23-2.77-.33-5.55-.67-8.31-1.09A1.79,1.79,0,0,1,21,80.3a31.77,31.77,0,0,1,2-4.64c1.66-3.37,3.4-6.7,5.08-10.07.54-1.08,1-2.22,1.49-3.31.31-.66.21-1.14-.51-1.4-1.32-.48-2.67-.91-4-1.44A16.33,16.33,0,0,1,22.05,58c-2.55-1.72-5-3.56-7.52-5.35-1-.72-1.37-.57-2,.65-1.66,3-3.31,6.07-5.07,9C6.32,64.18,5,65.94,3.82,67.75a2.07,2.07,0,0,1-2.74.68,2.13,2.13,0,0,1-.8-2.9,24.65,24.65,0,0,1,2.26-3.46A55.18,55.18,0,0,0,8.73,51.78c.6-1.2,1.4-2.31,2-3.53,1.15-2.44,2.1-5,3.34-7.36,1.73-3.34,3.69-6.57,5.49-9.89,1.4-2.58,2.69-5.22,4-7.84.93-1.82,1.86-3.63,2.77-5.46,1.39-2.78,2.79-5.56,4.14-8.36,1.09-2.27,2.07-4.59,3.16-6.86A6.48,6.48,0,0,1,35,.55a2,2,0,0,1,3.33,1c.33,1,.68,2,1,3,1.12,3.31,2.17,6.64,3.37,9.92,1.29,3.54,2.7,7,4.07,10.55A2.38,2.38,0,0,0,47,25.42ZM31.11,57.13c1.36-2.81,2.71-5.61,4.07-8.39.42-.86.92-1.69,1.37-2.54,1.76-3.28,3.58-6.53,5.24-9.87.86-1.73,1.42-3.6,2.87-5a1,1,0,0,0,0-1.46,6.77,6.77,0,0,1-1-1.78c-.84-2.15-1.63-4.33-2.43-6.5q-2.54-6.91-5.08-13.81a2.85,2.85,0,0,0-.44-.56c-.28.59-.51,1-.71,1.51-.45,1.08-.81,2.2-1.33,3.25-.84,1.7-1.81,3.34-2.66,5-1.73,3.46-3.38,7-5.13,10.4-2,3.91-4.06,7.78-6.08,11.67-1.34,2.57-2.65,5.16-4,7.73a1.26,1.26,0,0,0,.43,1.8,50.72,50.72,0,0,1,5,3.66C24,54.84,27.46,55.89,31.11,57.13Z"/></g></svg>